<?xml version="1.0" encoding="UTF-8"?><svg id="Layer_2" xmlns="http://www.w3.org/2000/svg" viewBox="0 0 364.25 71.72"><defs><style>.cls-1{fill:#fff;}</style></defs><g id="Layer_1-2"><g><path class="cls-1" d="M21.74,43.36c0-4.35,3.51-7.85,7.84-7.85s7.85,3.51,7.85,7.85-3.51,7.85-7.85,7.85-7.84-3.51-7.84-7.85"/><path class="cls-1" d="M17.15,63.88c0-8.58-.72-9.3-9.29-9.3-4.35,0-7.85-3.51-7.85-7.84s3.5-7.85,7.85-7.85,7.85,3.51,7.85,7.85c0,8.57,.73,9.3,9.29,9.3,4.35,0,7.85,3.5,7.85,7.85s-3.5,7.84-7.85,7.84-7.85-3.5-7.85-7.84"/><path class="cls-1" d="M53.74,46.29c0-8.58-.72-9.3-9.3-9.3-4.35,0-7.84-3.5-7.84-7.85s3.5-7.84,7.84-7.84,7.85,3.5,7.85,7.84c0,8.58,.73,9.3,9.29,9.3,4.35,0,7.85,3.5,7.85,7.85s-3.5,7.85-7.85,7.85-7.85-3.5-7.85-7.85"/><path class="cls-1" d="M57.88,25c0-8.58-.72-9.3-9.29-9.3-4.35,0-7.85-3.5-7.85-7.85s3.5-7.85,7.85-7.85,7.84,3.5,7.84,7.85c0,8.57,.73,9.29,9.3,9.29,4.35,0,7.84,3.51,7.84,7.85s-3.49,7.84-7.84,7.84-7.85-3.49-7.85-7.84"/><path class="cls-1" d="M37.65,62.25c0-4.35,3.51-7.85,7.85-7.85s7.84,3.5,7.84,7.85-3.5,7.85-7.84,7.85-7.85-3.5-7.85-7.85"/><path class="cls-1" d="M3.36,25.8c0-4.35,3.5-7.85,7.85-7.85s7.85,3.5,7.85,7.85-3.5,7.85-7.85,7.85-7.85-3.5-7.85-7.85"/><path class="cls-1" d="M18.23,9.79c0-4.35,3.5-7.85,7.85-7.85s7.85,3.5,7.85,7.85-3.5,7.85-7.85,7.85-7.85-3.5-7.85-7.85"/><path class="cls-1" d="M123.6,59.05c-3.33,1.35-6.26,2.14-11.02,2.14-10.47,0-18.88-6.19-18.88-21.41,0-10.47,4.2-18.08,16.1-18.08s14.51,8.17,14.51,15.47h-22.6c0,7.46,3.33,19.83,14.67,19.83,2.46,0,4.84-.48,7.21-1.59v3.65Zm-7.14-25.54c0-2.93-1.03-8.49-6.98-8.49s-7.38,6.35-7.53,8.49h14.51Z"/><path class="cls-1" d="M157.63,51.36h-.16c-1.27,2.78-4.84,9.83-13.17,9.83-6.66,0-9.52-5.55-9.52-11.02V22.57h8.01v23.64c0,4.76,.71,9.04,4.76,9.04,7.93,0,10.16-12.37,10.16-17.05v-15.62h8.01V60.32h-8.09v-8.97Z"/><path class="cls-1" d="M179.04,22.57h8.01v9.59h.16c2.54-5.07,5.31-9.91,12.21-10.47v8.33c-7.69,.24-12.37,2.85-12.37,13.01v17.29h-8.01V22.57Z"/><path class="cls-1" d="M204.36,41.44c0-12.77,5.55-19.75,16.65-19.75s16.73,6.98,16.73,19.75-5.63,19.75-16.73,19.75-16.65-6.98-16.65-19.75Zm16.65,16.42c7.14,0,8.01-9.52,8.01-16.42s-.87-16.42-8.01-16.42-7.93,9.52-7.93,16.42,.88,16.42,7.93,16.42Z"/><path class="cls-1" d="M250.36,26.69h-6.58v-4.12h6.58v-3.57c0-6.98,1.67-14.28,14.36-14.28,3.25,0,6.1,.47,8.01,.87v5.47c-1.67-.71-3.81-1.74-7.06-1.74-6.5,0-7.3,4.68-7.3,8.72v4.52h10.71v4.12h-10.71V60.32h-8.01V26.69Z"/><path class="cls-1" d="M278.2,5.6h8.64v7.93h-8.64V5.6Zm.32,16.97h8.01V60.32h-8.01V22.57Z"/><path class="cls-1" d="M299.53,22.57h8.01v8.96h.16c1.27-2.78,4.92-9.84,13.25-9.84,6.66,0,9.52,5.55,9.52,11.03v27.6h-8.01v-23.64c0-4.76-.71-9.04-4.76-9.04-7.93,0-10.15,12.37-10.15,17.05v15.63h-8.01V22.57Z"/><path class="cls-1" d="M361.87,30.02c-2.7-1.82-5.71-3.73-9.52-3.73-2.54,0-5.39,1.11-5.39,3.96,0,6.82,17.28,7.46,17.28,19.51,0,8.09-6.34,11.42-14.35,11.42-4.84,0-8.17-1.03-10.07-1.67v-7.37c2.3,1.59,6.03,3.97,10.47,3.97s6.5-2.38,6.5-4.76c0-6.66-17.05-8.01-17.05-18.8,0-5.71,3.81-10.87,13.24-10.87,4.05,0,7.54,1.11,8.88,1.51v6.82Z"/></g></g></svg>